<?xml version="1.0" encoding="utf-8"?>
<!-- Generator: Adobe Illustrator 16.0.0, SVG Export Plug-In . SVG Version: 6.00 Build 0)  -->
<!DOCTYPE svg PUBLIC "-//W3C//DTD SVG 1.1//EN" "http://www.w3.org/Graphics/SVG/1.1/DTD/svg11.dtd">
<svg version="1.1" id="Layer_1" xmlns="http://www.w3.org/2000/svg" xmlns:xlink="http://www.w3.org/1999/xlink" x="0px" y="0px"
	 width="33.019px" height="20.992px" viewBox="0 0 33.019 20.992" enable-background="new 0 0 33.019 20.992" xml:space="preserve">
<path fill-rule="evenodd" clip-rule="evenodd" fill="#D5D5D5" d="M33.015,14.7H22.163c0.06,1.5,0.629,1.867,1.603,2.472
	c0.592,0.375,1.305,0.562,2.138,0.562c0.883,0,1.601-0.228,2.152-0.686c0.301-0.247,0.567-0.851,0.798-1.289h3.959
	c-0.104,0.887-0.584,2.049-1.438,2.963c-1.329,1.453-3.188,2.246-5.579,2.246c-1.974,0-3.714-0.678-5.223-1.904
	s-2.263-3.223-2.263-5.987c0-2.591,0.681-4.577,2.043-5.96c1.361-1.382,3.129-2.028,5.302-2.028c1.291,0,2.453,0.188,3.487,0.655
	c1.034,0.468,1.889,1.205,2.562,2.213c0.607,0.889,1.001,1.919,1.182,3.091C32.991,11.735,33.033,13.409,33.015,14.7z M27.956,9.074
	c-0.617-0.538-1.384-0.853-2.299-0.853c-0.995,0-1.767,0.331-2.314,0.9c-0.548,0.57-0.834,1.472-0.975,2.445h6.641
	C28.938,10.53,28.575,9.611,27.956,9.074z M20.604,0H30.97v3.095H20.604V0z M15.408,12.305c0.52,0.814,0.961,1.802,0.961,2.963
	c0,1.198-0.34,2.273-0.936,3.224c-0.378,0.631-0.99,1.162-1.558,1.592c-0.64,0.494-1.395,0.609-2.266,0.791
	c-0.87,0.184-1.814,0.096-2.833,0.096L0,20.976V1.118h9.432c2.445,0.037,4.178,0.787,5.197,2.187
	c0.613,0.859,0.907,1.889,0.907,3.087c0,1.235-0.296,2.228-0.916,2.978c-0.346,0.421-0.901,0.805-1.575,1.152
	C14.069,10.896,14.887,11.491,15.408,12.305z M10.246,4.497C9.659,4.252,9.063,4.148,8.103,4.148L4.038,4.181L4.031,9.422
	l4.583,0.025c0.871,0,1.087-0.141,1.635-0.467c0.834-0.497,1.047-1.285,1.047-2.136C11.297,5.902,11.303,5.029,10.246,4.497z
	 M10.228,12.812c-0.475-0.22-1.207-0.308-2.068-0.317l-4.153,0.007v5.306l4.087,0.033c0.869,0,1.546-0.1,2.03-0.337
	c0.878-0.438,1.182-1.28,1.182-2.524C11.305,13.928,11.079,13.206,10.228,12.812z"/>
</svg>
