<?xml version="1.0" encoding="utf-8"?>
<!-- Generator: Adobe Illustrator 16.0.0, SVG Export Plug-In . SVG Version: 6.00 Build 0)  -->
<!DOCTYPE svg PUBLIC "-//W3C//DTD SVG 1.1//EN" "http://www.w3.org/Graphics/SVG/1.1/DTD/svg11.dtd">
<svg version="1.1" id="Layer_1" xmlns="http://www.w3.org/2000/svg" xmlns:xlink="http://www.w3.org/1999/xlink" x="0px" y="0px"
	 width="12.018px" height="26.006px" viewBox="0 0 12.018 26.006" enable-background="new 0 0 12.018 26.006" xml:space="preserve">
<path fill-rule="evenodd" clip-rule="evenodd" fill="#D5D5D5" d="M11.993,0.007c0,1.5,0,4.186,0,4.186S8.954,3.885,8.192,5.068
	C7.776,5.713,8.023,7.605,7.986,8.964c1.327,0,2.706,0,4.032,0c-0.341,1.588-0.585,2.665-0.836,4.04c-1.148,0-3.219,0-3.219,0
	v13.002c0,0-3.8,0-5.586,0c0.001-4.009-0.001-8.685,0-12.951c-0.868,0-1.509,0-2.377,0c0-1.499,0-2.592,0-4.091
	c0.842,0,1.509,0,2.351,0C2.472,5.973,2.517,3.009,3.981,1.5C5.627-0.196,7.197,0.007,11.993,0.007z"/>
</svg>
