<?xml version="1.0" encoding="utf-8"?>
<!-- Generator: Adobe Illustrator 16.0.0, SVG Export Plug-In . SVG Version: 6.00 Build 0)  -->
<!DOCTYPE svg PUBLIC "-//W3C//DTD SVG 1.1//EN" "http://www.w3.org/Graphics/SVG/1.1/DTD/svg11.dtd">
<svg version="1.1" id="Layer_1" xmlns="http://www.w3.org/2000/svg" xmlns:xlink="http://www.w3.org/1999/xlink" x="0px" y="0px"
	 width="26.006px" height="21.989px" viewBox="0 0 26.006 21.989" enable-background="new 0 0 26.006 21.989" xml:space="preserve">
<path fill-rule="evenodd" clip-rule="evenodd" fill="#D5D5D5" d="M21.959,5.66c0,1.386-0.025,2.664-0.025,4.05
	c-0.432,0-1.113,0-1.547,0c0-1.378-0.025-2.673-0.025-4.05c-1.34-0.06-2.693,0.017-4.076,0c0-0.439,0-1.171,0-1.61
	c1.391,0,2.66,0,4.051,0c0-1.335,0.025-2.613,0.025-3.948c-0.002-0.036-0.029-0.071,0-0.076c0.424,0,1.148,0,1.572,0
	c0,1.353-0.025,2.673-0.025,4.024c1.332,0.06,2.723-0.017,4.098,0c0,0.439,0,1.171,0,1.61C24.624,5.66,23.342,5.66,21.959,5.66z
	 M11.425,1.039c1.163,0.959,2.197,2.187,2.112,4.184C13.452,7.24,12.166,8.053,10.993,9c-0.271,0.219-0.687,0.668-0.789,0.938
	c-0.425,1.116,0.713,1.747,1.298,2.18c0.535,0.396,0.989,0.74,1.399,1.09c0.865,0.739,1.685,1.686,1.68,3.321
	c-0.006,1.788-1.037,3.032-2.188,3.854c-1.155,0.824-2.819,1.393-4.504,1.547c-1.974,0.18-3.835-0.051-5.268-0.686
	C1.325,20.672-0.004,19.612,0,17.848c0.002-0.907,0.397-1.81,0.891-2.357C3.295,12.82,5,13.239,8.143,13.006
	c-0.168-0.33-0.627-0.724-0.788-1.217c-0.208-0.633-0.08-1.339,0.203-1.851c-2.011,0.257-3.618-0.322-4.682-1.344
	c-0.909-0.872-1.61-2.349-1.247-4.057c0.31-1.459,1.178-2.514,2.265-3.245C5.028,0.529,6.413,0,8.219,0c2.227,0,4.604,0,6.973,0
	l-1.934,1.039C12.683,1.039,12.128,1.039,11.425,1.039z M4.173,14.78c-0.464,0.284-1.017,0.71-1.323,1.521
	c-0.204,0.541-0.206,1.254-0.051,1.8c0.443,1.549,2.289,2.443,4.225,2.611c2.092,0.18,4.204-0.143,5.114-1.623
	c0.494-0.803,0.514-1.968,0.025-2.764c-0.573-0.935-1.356-1.342-2.188-1.926c-0.252-0.178-0.501-0.471-0.84-0.559
	c-0.232-0.061-0.711-0.012-0.967,0C6.507,13.921,5.184,14.16,4.173,14.78z M8.397,1.293c-0.42-0.237-1.087-0.37-1.705-0.304
	C5.48,1.118,4.686,1.884,4.402,2.713C4,3.887,4.312,5.466,4.733,6.49C5.19,7.604,5.902,8.513,6.769,8.924
	c1.394,0.662,3.244-0.005,3.817-1.191c0.158-0.328,0.231-0.812,0.254-1.166C10.99,4.285,9.771,2.071,8.397,1.293z"/>
</svg>
