<?xml version="1.0" encoding="utf-8"?>
<!-- Generator: Adobe Illustrator 16.0.0, SVG Export Plug-In . SVG Version: 6.00 Build 0)  -->
<!DOCTYPE svg PUBLIC "-//W3C//DTD SVG 1.1//EN" "http://www.w3.org/Graphics/SVG/1.1/DTD/svg11.dtd">
<svg version="1.1" id="Layer_1" xmlns="http://www.w3.org/2000/svg" xmlns:xlink="http://www.w3.org/1999/xlink" x="0px" y="0px"
	 width="18px" height="15px" viewBox="0 0 18 15" enable-background="new 0 0 18 15" xml:space="preserve">
<path fill-rule="evenodd" clip-rule="evenodd" fill="#D5D5D5" d="M12.938,0c-1.353,0-2.437,0.463-3.393,1.373
	c0,0.001-0.001,0.001-0.001,0.002c-0.001,0-0.001,0-0.001,0L9,2.026L8.456,1.414c0-0.001-0.001-0.001-0.001-0.002
	c-0.001,0-0.001,0-0.001,0l0,0C7.498,0.502,6.414,0,5.062,0C3.71,0,2.438,0.502,1.482,1.412C0.526,2.323,0,3.533,0,4.821
	c0,1.287,0.525,2.497,1.48,3.408l6.721,6.453C8.412,14.886,8.7,15,9,15s0.587-0.114,0.799-0.317l6.72-6.453
	C17.474,7.319,18,6.108,18,4.821s-0.526-2.498-1.483-3.409C15.561,0.502,14.289,0,12.938,0L12.938,0z"/>
</svg>
