<?xml version="1.0" encoding="utf-8"?>
<!-- Generator: Adobe Illustrator 16.0.0, SVG Export Plug-In . SVG Version: 6.00 Build 0)  -->
<!DOCTYPE svg PUBLIC "-//W3C//DTD SVG 1.1//EN" "http://www.w3.org/Graphics/SVG/1.1/DTD/svg11.dtd">
<svg version="1.1" id="Layer_1" xmlns="http://www.w3.org/2000/svg" xmlns:xlink="http://www.w3.org/1999/xlink" x="0px" y="0px"
	 width="23px" height="23px" viewBox="0 0 23 23" enable-background="new 0 0 23 23" xml:space="preserve">
<path fill="#D5D5D5" d="M18.453,11.5c0,3.841-3.113,6.953-6.953,6.953c-3.841,0-6.953-3.112-6.953-6.953
	c0-0.458,0.045-0.904,0.131-1.337H0v9.242C0,21.39,1.607,23,3.595,23h15.811C21.391,23,23,21.392,23,19.405v-9.242h-4.677
	C18.408,10.596,18.453,11.042,18.453,11.5z M19.406,0H3.595C1.608,0,0,1.61,0,3.595v3.894h5.822C7.08,5.71,9.154,4.547,11.5,4.547
	s4.419,1.163,5.677,2.941H23V3.595C23,1.61,21.391,0,19.406,0z M21.165,4.439c0,0.354-0.29,0.643-0.642,0.643h-1.926
	c-0.352,0-0.641-0.289-0.641-0.643V2.515c0-0.354,0.289-0.643,0.641-0.643h1.926c0.354,0,0.642,0.288,0.642,0.643V4.439z
	 M15.779,11.5c0-2.364-1.916-4.278-4.279-4.278S7.221,9.136,7.221,11.5s1.916,4.279,4.279,4.279S15.779,13.864,15.779,11.5z"/>
</svg>
