<?xml version="1.0" encoding="utf-8"?>
<!-- Generator: Adobe Illustrator 16.0.0, SVG Export Plug-In . SVG Version: 6.00 Build 0)  -->
<!DOCTYPE svg PUBLIC "-//W3C//DTD SVG 1.1//EN" "http://www.w3.org/Graphics/SVG/1.1/DTD/svg11.dtd">
<svg version="1.1" id="Layer_1" xmlns="http://www.w3.org/2000/svg" xmlns:xlink="http://www.w3.org/1999/xlink" x="0px" y="0px"
	 width="23.991px" height="24.002px" viewBox="0 0 23.991 24.002" enable-background="new 0 0 23.991 24.002" xml:space="preserve">
<path fill-rule="evenodd" clip-rule="evenodd" fill="#D5D5D5" d="M19.327,24.002V13.766c0-0.885-0.121-1.564-0.364-2.037
	c-0.444-0.865-1.289-1.298-2.536-1.298c-1.533,0-2.584,0.634-3.155,1.899c-0.296,0.669-0.444,1.523-0.444,2.562v9.109H8.727V6.962
	h3.957v2.697c0.583-0.864,1.135-1.487,1.654-1.868c0.933-0.68,2.115-1.019,3.547-1.019c1.791,0,3.256,0.455,4.396,1.366
	c1.14,0.91,1.71,2.421,1.71,4.531v11.332H19.327z M2.818,5.449C1.262,5.449,0,4.229,0,2.725S1.262,0,2.818,0
	c1.556,0,2.817,1.22,2.817,2.725S4.374,5.449,2.818,5.449z M5.032,24.002H0.417V7.174h4.615V24.002z"/>
</svg>
