<?xml version="1.0" encoding="utf-8"?>
<!-- Generator: Adobe Illustrator 16.0.0, SVG Export Plug-In . SVG Version: 6.00 Build 0)  -->
<!DOCTYPE svg PUBLIC "-//W3C//DTD SVG 1.1//EN" "http://www.w3.org/Graphics/SVG/1.1/DTD/svg11.dtd">
<svg version="1.1" id="Layer_1" xmlns="http://www.w3.org/2000/svg" xmlns:xlink="http://www.w3.org/1999/xlink" x="0px" y="0px"
	 width="20.016px" height="26.007px" viewBox="0 0 20.016 26.007" enable-background="new 0 0 20.016 26.007" xml:space="preserve">
<path fill-rule="evenodd" clip-rule="evenodd" fill="#D5D5D5" d="M8.328,16.886c-0.214,0.845-0.429,1.73-0.652,2.596
	c-0.22,0.853-0.413,1.718-0.733,2.502c-0.53,1.3-1.204,2.555-2.087,3.57c-0.587,0.676-0.462,0.405-0.639,0.369
	c-0.135-0.027-0.146-0.159-0.173-0.349c-0.144-1.033-0.046-2.226,0.008-3.386c0.061-1.321,0.341-2.419,0.601-3.518
	c0.495-2.091,0.967-4.142,1.466-6.247c0.034-0.141,0.123-0.372,0.092-0.451c-0.226-0.585-0.373-1.11-0.438-1.724
	c-0.075-0.705-0.018-1.363,0.142-1.97c0.282-1.072,0.933-2.023,1.935-2.37c0.637-0.22,1.343-0.12,1.772,0.134
	c0.441,0.262,0.744,0.676,0.886,1.262c0.15,0.625,0.039,1.37-0.082,1.918c-0.273,1.234-0.631,2.162-0.958,3.354
	c-0.161,0.592-0.344,1.198-0.193,1.837C9.414,15,9.721,15.403,10.14,15.706c0.435,0.314,0.95,0.486,1.66,0.462
	c1.254-0.044,2.126-0.84,2.709-1.59c0.932-1.2,1.496-2.821,1.71-4.75c0.069-0.621,0.12-1.337,0.071-2.041
	c-0.089-1.302-0.499-2.349-1.15-3.16c-0.619-0.772-1.498-1.388-2.565-1.733c-1.06-0.344-2.527-0.458-3.83-0.236
	c-2.367,0.402-4.037,1.737-5.02,3.58C3.21,7.203,2.87,8.313,2.87,9.694c0,1.065,0.265,1.892,0.692,2.534
	c0.136,0.204,0.335,0.372,0.469,0.605c0.188,0.33-0.029,0.822-0.123,1.18c-0.112,0.431-0.124,1.026-0.631,1.036
	c-0.209,0.004-0.474-0.148-0.651-0.246c-1.333-0.731-2.143-2.061-2.475-3.785c-0.202-1.048-0.201-2.271,0-3.283
	c0.194-0.979,0.557-1.883,0.957-2.616c0.832-1.522,2.05-2.74,3.534-3.61C5.782,0.84,7.068,0.37,8.633,0.145
	c0.52-0.075,1.057-0.106,1.64-0.134c1.704-0.08,3.253,0.303,4.419,0.82c1.231,0.547,2.214,1.273,3.045,2.175
	c0.855,0.928,1.479,2.007,1.874,3.354c0.205,0.702,0.405,1.453,0.405,2.318c0,0.87-0.185,1.636-0.314,2.401
	c-0.483,2.866-1.857,5.211-3.92,6.545c-0.5,0.323-1.104,0.622-1.792,0.82c-0.682,0.197-1.459,0.345-2.292,0.287
	c-0.809-0.056-1.47-0.272-2.026-0.585C9.12,17.839,8.656,17.46,8.328,16.886z"/>
</svg>
