<?xml version="1.0" encoding="utf-8"?>
<!-- Generator: Adobe Illustrator 16.0.0, SVG Export Plug-In . SVG Version: 6.00 Build 0)  -->
<!DOCTYPE svg PUBLIC "-//W3C//DTD SVG 1.1//EN" "http://www.w3.org/Graphics/SVG/1.1/DTD/svg11.dtd">
<svg version="1.1" id="Layer_1" xmlns="http://www.w3.org/2000/svg" xmlns:xlink="http://www.w3.org/1999/xlink" x="0px" y="0px"
	 width="28.011px" height="23.01px" viewBox="0 0 28.011 23.01" enable-background="new 0 0 28.011 23.01" xml:space="preserve">
<path fill-rule="evenodd" clip-rule="evenodd" fill="#D5D5D5" d="M28.011,2.809c-0.135,1.045-1.661,2.093-2.586,2.887
	C26.337,19.044,11.083,27.373,0,20.609c3.108,0.021,6.608-0.824,8.457-2.566c-2.688-0.432-4.593-1.642-5.332-4.009
	c0.788-0.073,1.893,0.168,2.424-0.16c-2.459-0.927-4.404-2.364-4.524-5.612C1.9,8.354,2.355,8.864,3.448,8.742
	C1.857,7.73,0.042,3.883,1.67,1.045C4.557,4.221,8.16,6.686,13.79,7.139c-1.396-5.895,6.477-9.546,10.02-5.291
	c1.377-0.291,2.537-0.797,3.716-1.283c-0.483,1.338-1.464,2.182-2.424,3.046C26.146,3.418,27.249,3.282,28.011,2.809z"/>
</svg>
