<?xml version="1.0" encoding="utf-8"?>
<!-- Generator: Adobe Illustrator 16.0.0, SVG Export Plug-In . SVG Version: 6.00 Build 0)  -->
<!DOCTYPE svg PUBLIC "-//W3C//DTD SVG 1.1//EN" "http://www.w3.org/Graphics/SVG/1.1/DTD/svg11.dtd">
<svg version="1.1" id="Layer_1" xmlns="http://www.w3.org/2000/svg" xmlns:xlink="http://www.w3.org/1999/xlink" x="0px" y="0px"
	 width="13.008px" height="13.002px" viewBox="0 0 13.008 13.002" enable-background="new 0 0 13.008 13.002" xml:space="preserve">
<path fill-rule="evenodd" clip-rule="evenodd" fill="#FFFFFF" d="M0.125,10.479L4.11,6.489L0.125,2.524
	c-0.167-0.166-0.167-0.434,0-0.6l1.809-1.8c0.167-0.166,0.438-0.166,0.604,0l3.979,3.958l3.955-3.958
	c0.166-0.166,0.437-0.166,0.604,0l1.809,1.8c0.167,0.166,0.167,0.434,0,0.6L8.928,6.482l3.955,3.934
	c0.167,0.166,0.167,0.435,0,0.601l-1.809,1.8c-0.167,0.166-0.438,0.166-0.604,0L6.523,8.889l-3.986,3.989
	c-0.166,0.165-0.437,0.165-0.604,0l-1.809-1.8C-0.042,10.912-0.042,10.644,0.125,10.479z"/>
</svg>
