<?xml version="1.0" encoding="utf-8"?>
<!-- Generator: Adobe Illustrator 16.0.0, SVG Export Plug-In . SVG Version: 6.00 Build 0)  -->
<!DOCTYPE svg PUBLIC "-//W3C//DTD SVG 1.1//EN" "http://www.w3.org/Graphics/SVG/1.1/DTD/svg11.dtd">
<svg version="1.1" id="Layer_1" xmlns="http://www.w3.org/2000/svg" xmlns:xlink="http://www.w3.org/1999/xlink" x="0px" y="0px"
	 width="25.601px" height="24px" viewBox="0 0 25.601 24" enable-background="new 0 0 25.601 24" xml:space="preserve">
<g>
	<g>
		<path fill="#4A535F" d="M23.2-0.002H2.4C1.081-0.002,0,1.08,0,2.402v15.593C0,19.318,1.081,20,2.4,20H12
			c1.32,0,3.164,0.985,4.097,1.92l1.406,1.5c0.362,0.363,0.699,0.583,0.976,0.583c0.436,0,0.721-0.591,0.721-1.4
			C19.2,21.28,20.28,20,21.601,20h1.6c1.32,0,2.4-0.682,2.4-2.004V2.402C25.601,1.08,24.521-0.002,23.2-0.002z M24.001,17.996
			c0,0.435-0.367,0.44-0.801,0.44h-1.6c-1.766,0-3.268,1.333-3.797,2.926l-0.574-0.666c-1.234-1.237-3.482-2.26-5.229-2.26H2.4
			c-0.434,0-0.8-0.006-0.8-0.44V2.402c0-0.435,0.367-0.802,0.8-0.802h20.8c0.434,0,0.801,0.367,0.801,0.802V17.996z M5.6,7.212h8
			c0.441,0,0.801-0.359,0.801-0.802c0-0.442-0.359-0.801-0.801-0.801h-8c-0.441,0-0.8,0.359-0.8,0.801
			C4.8,6.854,5.159,7.212,5.6,7.212z M19.2,9.618H5.6c-0.441,0-0.8,0.359-0.8,0.802c0,0.442,0.358,0.801,0.8,0.801h13.6
			c0.442,0,0.801-0.359,0.801-0.801C20,9.977,19.642,9.618,19.2,9.618z M19.2,12.824H5.6c-0.441,0-0.8,0.359-0.8,0.802
			c0,0.442,0.358,0.802,0.8,0.802h13.6c0.442,0,0.801-0.359,0.801-0.802C20,13.183,19.642,12.824,19.2,12.824z"/>
	</g>
</g>
</svg>
