<?xml version="1.0" encoding="utf-8"?>
<!-- Generator: Adobe Illustrator 16.0.0, SVG Export Plug-In . SVG Version: 6.00 Build 0)  -->
<!DOCTYPE svg PUBLIC "-//W3C//DTD SVG 1.1//EN" "http://www.w3.org/Graphics/SVG/1.1/DTD/svg11.dtd">
<svg version="1.1" id="Layer_1" xmlns="http://www.w3.org/2000/svg" xmlns:xlink="http://www.w3.org/1999/xlink" x="0px" y="0px"
	 width="25.601px" height="24px" viewBox="0 0 25.601 24" enable-background="new 0 0 25.601 24" xml:space="preserve">
<path fill="#4A535F" d="M24.8,3.2h-6.4V2.4C18.4,1.077,17.323,0,16,0H9.6C8.276,0,7.2,1.077,7.2,2.4v0.8H0.8C0.358,3.2,0,3.558,0,4
	v6.4c0,0.442,0.358,0.8,0.8,0.8v9.75C0.8,22.66,2.205,24,4,24h17.601c1.795,0,3.199-1.34,3.199-3.05V11.2
	c0.441,0,0.801-0.358,0.801-0.8V4C25.601,3.558,25.241,3.2,24.8,3.2z M8.8,2.4c0-0.441,0.359-0.8,0.8-0.8H16
	c0.44,0,0.799,0.358,0.799,0.8v0.8h-8V2.4z M1.6,9.6V4.8h22.401v4.8H1.6z M20,22.4H5.6V11.2H12v1.6c0,0.442,0.358,0.8,0.799,0.8
	c0.442,0,0.801-0.358,0.801-0.8v-1.6H20V22.4z M2.4,20.95V11.2H4v11.2C3.073,22.4,2.4,21.79,2.4,20.95z M23.2,20.95
	c0,0.84-0.674,1.45-1.6,1.45V11.2h1.6V20.95z"/>
</svg>
