<?xml version="1.0" encoding="utf-8"?>
<!-- Generator: Adobe Illustrator 16.0.0, SVG Export Plug-In . SVG Version: 6.00 Build 0)  -->
<!DOCTYPE svg PUBLIC "-//W3C//DTD SVG 1.1//EN" "http://www.w3.org/Graphics/SVG/1.1/DTD/svg11.dtd">
<svg version="1.1" id="Layer_1" xmlns="http://www.w3.org/2000/svg" xmlns:xlink="http://www.w3.org/1999/xlink" x="0px" y="0px"
	 width="24.8px" height="25.6px" viewBox="0 0 24.8 25.6" enable-background="new 0 0 24.8 25.6" xml:space="preserve">
<path fill="#4A535F" d="M24.778,21.849c-0.006-0.061-0.013-0.12-0.013-0.175c0-2.369-3.289-5.121-8.133-6.168
	c0.994-1.134,1.768-2.674,1.768-4.424V6.413C18.4,2.757,15.826,0,12.4,0c-3.427,0-6,2.757-6,6.413v4.669
	c0,1.843,0.47,3.456,1.561,4.605c-4.137,1.068-7.875,3.401-7.875,6.016c0,0.056-0.055,0.114-0.061,0.173
	c-0.04,0.391-0.157,1.306,0.894,1.854C3.174,24.9,7.455,25.6,12.39,25.6c4.935,0,9.222-0.699,11.477-1.871
	C24.917,23.182,24.818,22.248,24.778,21.849z M8,11.082V6.413c0-2.731,1.886-4.792,4.4-4.792c2.512,0,4.4,2.06,4.4,4.792v4.669
	c0,2.731-1.888,4.792-4.4,4.792C9.886,15.873,8,13.813,8,11.082z M23.127,22.287c-2.009,1.043-6.127,1.691-10.75,1.691
	s-8.741-0.648-10.749-1.69c-0.037-0.021-0.061-0.036-0.071-0.039c-0.001-0.051,0.008-0.142,0.015-0.207
	c0.012-0.116,0.022-0.23,0.022-0.34c0-1.439,3.203-3.982,7.902-4.772c0.764,0.36,1.619,0.564,2.538,0.564
	c0.988,0,1.901-0.235,2.707-0.648c4.983,0.678,8.42,3.345,8.42,4.828c0,0.107,0.01,0.221,0.021,0.338
	c0.008,0.085,0.021,0.212,0.029,0.219C23.212,22.231,23.192,22.254,23.127,22.287z"/>
</svg>
