<?xml version="1.0" encoding="utf-8"?>
<!-- Generator: Adobe Illustrator 16.0.0, SVG Export Plug-In . SVG Version: 6.00 Build 0)  -->
<!DOCTYPE svg PUBLIC "-//W3C//DTD SVG 1.1//EN" "http://www.w3.org/Graphics/SVG/1.1/DTD/svg11.dtd">
<svg version="1.1" id="Layer_1" xmlns="http://www.w3.org/2000/svg" xmlns:xlink="http://www.w3.org/1999/xlink" x="0px" y="0px"
	 width="40px" height="40px" viewBox="0 0 40 40" enable-background="new 0 0 40 40" xml:space="preserve">
<path fill-rule="evenodd" clip-rule="evenodd" fill="none" stroke="#4A535F" stroke-width="2" stroke-miterlimit="10" d="M4.5,0.5
	h31c2.209,0,4,2.296,4,5.128v28.744c0,2.832-1.791,5.127-4,5.127h-31c-2.209,0-4-2.295-4-5.127V5.628C0.5,2.796,2.291,0.5,4.5,0.5z"
	/>
<g>
	<path fill-rule="evenodd" clip-rule="evenodd" fill="#4A535F" d="M9.666,25.004h5.561v5.561H9.666V25.004z"/>
	<path fill-rule="evenodd" clip-rule="evenodd" fill="#4A535F" d="M17.451,25.004h5.56v5.561h-5.56V25.004z"/>
	<path fill-rule="evenodd" clip-rule="evenodd" fill="#4A535F" d="M25.235,25.004h5.561v5.561h-5.561V25.004z"/>
	<path fill-rule="evenodd" clip-rule="evenodd" fill="#4A535F" d="M9.666,17.219h5.561v5.561H9.666V17.219z"/>
	<path fill-rule="evenodd" clip-rule="evenodd" fill="#4A535F" d="M17.451,17.219h5.56v5.561h-5.56V17.219z"/>
	<path fill-rule="evenodd" clip-rule="evenodd" fill="#4A535F" d="M25.235,17.219h5.561v5.561h-5.561V17.219z"/>
	<path fill-rule="evenodd" clip-rule="evenodd" fill="#4A535F" d="M9.666,9.435h5.561v5.561H9.666V9.435z"/>
	<path fill-rule="evenodd" clip-rule="evenodd" fill="#4A535F" d="M17.451,9.435h5.56v5.561h-5.56V9.435z"/>
	<path fill-rule="evenodd" clip-rule="evenodd" fill="#4A535F" d="M25.235,9.435h5.561v5.561h-5.561V9.435z"/>
</g>
</svg>
